Coordinates
version=1
nRows=32
nColumns=12
inDegrees=yes

Units are S.I. units (second, meters, Newtons, ...)
Angles are in degrees

endheader
time	SC_y	SC_z	SC_x	AC_y	AC_z	AC_x	GH_y	GH_z	GH_yy	EL_x	PS_y
       0.0              -22.94          10.86          20.16          42.41           -9.8         -11.23         -138.6          37.81           31.8          103.3          110.8
   0.02939              -22.94          10.87          20.16          42.42           -9.8         -11.23         -138.6          37.81          31.79          103.3          110.8
   0.05878              -22.94          10.87          20.16          42.42         -9.801         -11.22         -138.6          37.81          31.79          103.3          110.8
   0.08817              -22.93          10.87          20.17          42.42         -9.802         -11.22         -138.6          37.81          31.79          103.3          110.8
    0.1176              -22.93          10.88          20.17          42.43         -9.802         -11.22         -138.6          37.81          31.78          103.3          110.7
    0.1469              -22.93          10.88          20.17          42.43         -9.803         -11.21         -138.6          37.81          31.78          103.3          110.7
    0.1763              -22.93          10.88          20.18          42.43         -9.804         -11.21         -138.6          37.82          31.78          103.3          110.7
    0.2057              -22.93          10.89          20.18          42.44         -9.805          -11.2         -138.5          37.82          31.77          103.3          110.7
    0.2351              -22.92          10.89          20.18          42.44         -9.806          -11.2         -138.5          37.82          31.77          103.3          110.7
    0.2645              -22.92          10.89          20.19          42.45         -9.807         -11.19         -138.5          37.82          31.76          103.3          110.7
    0.2939              -22.92           10.9          20.19          42.45         -9.808         -11.19         -138.5          37.82          31.76          103.3          110.7
    0.3233              -22.92           10.9           20.2          42.46         -9.809         -11.18         -138.5          37.82          31.75          103.3          110.7
    0.3527              -22.91          10.91          20.21          42.46         -9.811         -11.18         -138.5          37.82          31.75          103.4          110.7
    0.3821              -22.91          10.92          20.21          42.47         -9.812         -11.17         -138.5          37.83          31.74          103.4          110.7
    0.4114               -22.9          10.92          20.22          42.48         -9.814         -11.16         -138.4          37.83          31.74          103.4          110.7
    0.4408               -22.9          10.93          20.23          42.48         -9.815         -11.16         -138.4          37.83          31.73          103.4          110.7
    0.4702               -22.9          10.94          20.23          42.49         -9.817         -11.15         -138.4          37.83          31.72          103.4          110.7
    0.4996              -22.89          10.95          20.24           42.5         -9.819         -11.14         -138.4          37.84          31.71          103.4          110.6
     0.529              -22.89          10.95          20.25          42.51         -9.821         -11.13         -138.3          37.84           31.7          103.4          110.6
    0.5584              -22.88          10.96          20.26          42.52         -9.824         -11.12         -138.3          37.84          31.69          103.4          110.6
    0.5878              -22.87          10.98          20.27          42.53         -9.826         -11.11         -138.3          37.85          31.68          103.4          110.6
    0.6172              -22.87          10.99          20.29          42.54         -9.829         -11.09         -138.2          37.85          31.67          103.5          110.6
    0.6465              -22.86           11.0           20.3          42.56         -9.832         -11.08         -138.2          37.85          31.66          103.5          110.6
    0.6759              -22.85          11.02          20.31          42.57         -9.836         -11.06         -138.1          37.86          31.64          103.5          110.5
    0.7053              -22.84          11.03          20.33          42.59          -9.84         -11.05         -138.1          37.86          31.63          103.5          110.5
    0.7347              -22.83          11.05          20.35          42.61         -9.844         -11.03         -138.0          37.87          31.61          103.6          110.5
    0.7641              -22.82          11.07          20.37          42.63         -9.849          -11.0         -138.0          37.88          31.59          103.6          110.4
    0.7935              -22.81          11.09          20.39          42.65         -9.854         -10.98         -137.9          37.88          31.57          103.6          110.4
    0.8229              -22.79          11.12          20.42          42.68          -9.86         -10.95         -137.8          37.89          31.54          103.7          110.4
    0.8523              -22.78          11.15          20.45          42.71         -9.867         -10.92         -137.7           37.9          31.51          103.7          110.3
    0.8817              -22.76          11.18          20.49          42.75         -9.875         -10.88         -137.6          37.91          31.48          103.7          110.3
     0.911              -22.73          11.22          20.53          42.79         -9.885         -10.84         -137.5          37.93          31.44          103.8          110.2
